<svg width="36" height="36" viewBox="0 0 36 36" fill="none" xmlns="http://www.w3.org/2000/svg">
<path d="M18.1506 2.25H18.0502L4.5 3.58944V27.221L18.0502 34.875L31.5 27.221V3.58944L18.1506 2.25ZM29.5929 13.8266L18.0502 7.32075V7.22507H17.9498L17.8494 7.1294V7.22507L6.40706 13.8266V5.21591L17.9498 4.06782L29.5929 5.21591V13.8266ZM17.9498 8.75587L29.4926 15.1661L24.9758 17.6536L17.8494 13.6353V14.9747L23.7714 18.3233L22.868 18.8017L17.8494 15.9315V17.2709L21.6636 19.4714L20.8606 19.9498L17.8494 18.2276V19.5671L19.7565 20.6195L17.9498 21.6719L6.50743 15.2617L17.9498 8.75587ZM6.40706 16.6968L17.8494 23.2027V24.1595L9.92007 19.6628V21.0022L17.9498 25.5946V26.647L9.92007 22.1503V23.4897L17.9498 28.0821L26.0799 23.3941V18.419L29.4926 16.5055V26.0729L17.9498 32.6745L6.40706 26.1686V16.6968Z" fill="black"/>
</svg>
